<svg viewBox="0 0 211.16 151.53" xmlns="http://www.w3.org/2000/svg" xmlns:xlink="http://www.w3.org/1999/xlink" id="Layer_1" overflow="hidden"><defs><clipPath id="clippath"><rect x="0" y="0" width="211.16" height="151.53" fill="none"/></clipPath></defs><g clip-path="url(#clippath)"><path d="M177.76 148.56 178.98 148.56 178.98 145.43C178.98 144.65 179.5 144.15 180.2 144.15 180.9 144.15 181.29 144.55 181.29 145.29L181.29 148.56 182.51 148.56 182.51 144.94C182.51 143.81 181.76 143.12 180.64 143.12 179.97 143.12 179.39 143.4 179 143.93L178.98 143.93 178.98 143.23 177.76 143.23 177.76 148.55ZM173.59 147.63C172.63 147.63 171.92 146.96 171.92 145.91 171.92 144.86 172.62 144.21 173.6 144.21 174.58 144.21 175.26 144.88 175.26 145.89 175.26 146.9 174.53 147.63 173.59 147.63M173.57 148.67C175.26 148.67 176.5 147.53 176.5 145.84 176.5 144.15 175.31 143.12 173.63 143.12 171.95 143.12 170.68 144.25 170.68 145.87 170.68 147.49 171.85 148.66 173.57 148.66M168.18 148.57 169.39 148.57 169.39 143.24 168.18 143.24 168.18 148.57ZM168.78 142.06C169.22 142.06 169.52 141.77 169.52 141.32 169.52 140.87 169.21 140.59 168.78 140.59 168.35 140.59 168.04 140.89 168.04 141.32 168.04 141.77 168.33 142.06 168.78 142.06M164.85 141.59 164.85 143.24 164.21 143.24 164.21 144.26 164.85 144.26 164.85 148.56 166.07 148.56 166.07 144.26 167.08 144.26 167.08 143.24 166.07 143.24 166.07 141.59 164.85 141.59ZM160.14 147.64C159.19 147.64 158.53 146.97 158.53 145.89 158.53 144.81 159.21 144.16 160.18 144.16 161.15 144.16 161.84 144.82 161.84 145.88 161.84 146.94 161.15 147.64 160.13 147.64M159.86 148.67C160.65 148.67 161.37 148.38 161.75 147.88L161.76 147.88 161.76 148.56 162.98 148.56 162.98 143.24 161.76 143.24 161.76 143.97 161.75 143.97C161.4 143.44 160.66 143.13 159.89 143.13 158.4 143.13 157.29 144.3 157.29 145.91 157.29 147.52 158.32 148.67 159.85 148.67M154.77 148.57 155.98 148.57 155.98 143.24 154.77 143.24 154.77 148.57ZM155.38 142.06C155.82 142.06 156.12 141.77 156.12 141.32 156.12 140.87 155.81 140.59 155.38 140.59 154.95 140.59 154.64 140.89 154.64 141.32 154.64 141.77 154.93 142.06 155.38 142.06M153.37 144.7 153.39 144.7 153.39 143.56C152.92 143.27 152.33 143.13 151.79 143.13 150.21 143.13 148.95 144.31 148.95 145.91 148.95 147.51 150.07 148.67 151.75 148.67 152.33 148.67 152.97 148.47 153.39 148.21L153.39 147.1 153.37 147.1C152.98 147.45 152.44 147.65 151.96 147.65 150.95 147.65 150.19 146.95 150.19 145.9 150.19 144.85 150.98 144.16 151.93 144.16 152.44 144.16 152.96 144.36 153.36 144.7M145.1 147.63C144.14 147.63 143.43 146.96 143.43 145.91 143.43 144.86 144.13 144.21 145.11 144.21 146.09 144.21 146.77 144.88 146.77 145.89 146.77 146.9 146.04 147.63 145.1 147.63M145.08 148.67C146.77 148.67 148.01 147.53 148.01 145.84 148.01 144.15 146.82 143.12 145.14 143.12 143.46 143.12 142.19 144.25 142.19 145.87 142.19 147.49 143.36 148.66 145.08 148.66M139.23 148.67C140.44 148.67 141.27 147.9 141.27 146.83 141.27 146 140.81 145.59 139.76 145.28 139.09 145.08 138.85 144.93 138.85 144.55 138.85 144.21 139.16 144.06 139.53 144.06 139.9 144.06 140.27 144.21 140.59 144.53L141.09 143.76C140.76 143.4 140.18 143.12 139.47 143.12 138.39 143.12 137.67 143.8 137.67 144.69 137.67 145.46 138.1 145.97 139.11 146.22 139.89 146.41 140.1 146.56 140.1 146.96 140.1 147.41 139.74 147.68 139.23 147.68 138.64 147.68 138.19 147.32 137.89 146.89L137.15 147.61C137.44 148.07 138.16 148.68 139.24 148.68M134.31 148.67C135.52 148.67 136.35 147.9 136.35 146.83 136.35 146 135.89 145.59 134.84 145.28 134.17 145.08 133.93 144.93 133.93 144.55 133.93 144.21 134.24 144.06 134.61 144.06 134.98 144.06 135.35 144.21 135.67 144.53L136.16 143.76C135.83 143.4 135.25 143.12 134.54 143.12 133.46 143.12 132.74 143.8 132.74 144.69 132.74 145.46 133.17 145.97 134.18 146.22 134.96 146.41 135.17 146.56 135.17 146.96 135.17 147.41 134.81 147.68 134.3 147.68 133.71 147.68 133.26 147.32 132.96 146.89L132.22 147.61C132.51 148.07 133.23 148.68 134.31 148.68M126.39 145.5 127.71 142.6 127.73 142.6 128.98 145.5 126.38 145.5ZM123.7 148.56 125.01 148.56 125.88 146.66 129.49 146.66 130.31 148.56 131.65 148.56 127.8 139.98 127.75 139.98 123.7 148.56ZM116.48 145.27C116.64 144.49 117.15 144.08 117.95 144.08 118.64 144.08 119.19 144.58 119.28 145.27L116.48 145.27ZM120.41 147.34 119.51 146.77C119.11 147.35 118.65 147.67 117.99 147.67 117.15 147.67 116.57 147.11 116.45 146.22L120.55 146.22C120.55 144.31 119.55 143.13 117.94 143.13 116.33 143.13 115.22 144.29 115.22 145.94 115.22 147.59 116.26 148.68 117.97 148.68 119.08 148.68 119.95 148.17 120.4 147.35M111.08 147.64C110.09 147.64 109.45 146.94 109.45 145.9 109.45 144.86 110.14 144.16 111.1 144.16 112.06 144.16 112.77 144.89 112.77 145.88 112.77 146.96 112.1 147.64 111.08 147.64M110.82 148.67C111.58 148.67 112.29 148.4 112.7 147.89L112.71 147.89 112.71 148.56 113.93 148.56 113.93 139.43 112.71 139.43 112.71 143.97 112.7 143.97C112.29 143.42 111.6 143.12 110.8 143.12 109.33 143.12 108.21 144.29 108.21 145.89 108.21 147.49 109.23 148.66 110.82 148.66M104.11 147.64C103.16 147.64 102.5 146.97 102.5 145.89 102.5 144.81 103.18 144.16 104.15 144.16 105.12 144.16 105.81 144.82 105.81 145.88 105.81 146.94 105.12 147.64 104.1 147.64M103.82 148.67C104.61 148.67 105.33 148.38 105.71 147.88L105.72 147.88 105.72 148.56 106.94 148.56 106.94 143.24 105.72 143.24 105.72 143.97 105.71 143.97C105.36 143.44 104.62 143.13 103.85 143.13 102.36 143.13 101.25 144.3 101.25 145.91 101.25 147.52 102.28 148.67 103.81 148.67M97.4 148.56 98.62 148.56 98.62 145.44C98.62 144.77 99.13 144.24 99.77 144.24 100.03 144.24 100.26 144.31 100.44 144.43L100.47 144.43C100.47 144.43 100.65 143.26 100.65 143.26 100.47 143.17 100.26 143.13 100.09 143.13 99.54 143.13 98.96 143.48 98.62 144.03L98.6 144.03 98.6 143.24 97.4 143.24 97.4 148.56ZM93.72 148.56 94.98 148.56 94.98 141.38 96.86 141.38 96.86 140.27 91.84 140.27 91.84 141.38 93.71 141.38 93.71 148.56ZM86.87 148.56 88.09 148.56 88.09 139.43 86.87 139.43 86.87 148.56ZM82.44 147.64C81.49 147.64 80.83 146.97 80.83 145.89 80.83 144.81 81.51 144.16 82.48 144.16 83.45 144.16 84.14 144.82 84.14 145.88 84.14 146.94 83.45 147.64 82.43 147.64M82.15 148.67C82.94 148.67 83.66 148.38 84.04 147.88L84.05 147.88 84.05 148.56 85.27 148.56 85.27 143.24 84.05 143.24 84.05 143.97 84.04 143.97C83.69 143.44 82.95 143.13 82.18 143.13 80.69 143.13 79.58 144.3 79.58 145.91 79.58 147.52 80.61 148.67 82.14 148.67M75.72 148.56 76.94 148.56 76.94 145.44C76.94 144.77 77.45 144.24 78.09 144.24 78.35 144.24 78.58 144.31 78.76 144.43L78.79 144.43C78.79 144.43 78.97 143.26 78.97 143.26 78.79 143.17 78.58 143.13 78.41 143.13 77.86 143.13 77.28 143.48 76.94 144.03L76.92 144.03 76.92 143.24 75.72 143.24 75.72 148.56ZM69.47 143.24 69.47 146.59C69.47 147.9 70.36 148.67 71.78 148.67 73.2 148.67 74.19 147.85 74.19 146.55L74.19 143.24 72.97 143.24 72.97 146.36C72.97 147.2 72.55 147.63 71.83 147.63 71.11 147.63 70.7 147.21 70.7 146.41L70.7 143.24 69.48 143.24ZM66.21 141.59 66.21 143.24 65.57 143.24 65.57 144.26 66.21 144.26 66.21 148.56 67.43 148.56 67.43 144.26 68.44 144.26 68.44 143.24 67.43 143.24 67.43 141.59 66.21 141.59ZM63.08 148.56 64.3 148.56 64.3 139.43 63.08 139.43 63.08 148.56ZM56.79 143.24 56.79 146.59C56.79 147.9 57.68 148.67 59.1 148.67 60.52 148.67 61.51 147.85 61.51 146.55L61.51 143.24 60.29 143.24 60.29 146.36C60.29 147.2 59.87 147.63 59.15 147.63 58.43 147.63 58.02 147.21 58.02 146.41L58.02 143.24 56.8 143.24ZM55.51 144.7 55.53 144.7 55.53 143.56C55.06 143.27 54.47 143.13 53.94 143.13 52.36 143.13 51.1 144.31 51.1 145.91 51.1 147.51 52.22 148.67 53.91 148.67 54.49 148.67 55.13 148.47 55.55 148.21L55.55 147.1 55.53 147.1C55.15 147.45 54.59 147.65 54.12 147.65 53.11 147.65 52.35 146.95 52.35 145.9 52.35 144.85 53.14 144.16 54.09 144.16 54.6 144.16 55.12 144.36 55.52 144.7M48.6 148.57 49.81 148.57 49.81 143.24 48.6 143.24 48.6 148.57ZM49.2 142.06C49.64 142.06 49.94 141.77 49.94 141.32 49.94 140.87 49.63 140.59 49.2 140.59 48.77 140.59 48.46 140.89 48.46 141.32 48.46 141.77 48.75 142.06 49.2 142.06M44.28 148.56 45.5 148.56 45.5 145.44C45.5 144.77 46.01 144.24 46.66 144.24 46.92 144.24 47.15 144.31 47.33 144.43L47.36 144.43C47.36 144.43 47.54 143.26 47.54 143.26 47.36 143.17 47.15 143.13 46.98 143.13 46.43 143.13 45.85 143.48 45.51 144.03L45.49 144.03 45.49 143.24 44.29 143.24 44.29 148.56ZM39.85 147.66C38.87 147.66 38.24 146.96 38.24 145.91 38.24 144.86 38.91 144.18 39.88 144.18 40.85 144.18 41.53 144.88 41.53 145.9 41.53 146.92 40.84 147.66 39.85 147.66M39.76 151.53C41.53 151.53 42.68 150.46 42.68 148.8L42.68 143.23 41.46 143.23 41.46 143.93 41.45 143.93C41.09 143.41 40.44 143.12 39.62 143.12 38.1 143.12 37 144.29 37 145.9 37 147.51 37.99 148.61 39.55 148.61 40.32 148.61 41.04 148.37 41.44 147.87L41.45 147.87 41.45 148.79C41.45 149.88 40.82 150.51 39.84 150.51 39.03 150.51 38.53 150.05 38.41 149.34L37.11 149.34C37.25 150.6 38.22 151.52 39.75 151.52M31.24 145.5 32.56 142.6 32.58 142.6 33.83 145.5 31.23 145.5ZM28.54 148.56 29.85 148.56 30.72 146.66 34.33 146.66 35.16 148.56 36.5 148.56 32.65 139.98 32.59 139.98 28.54 148.56Z" fill="#526580"/><path d="M180.07 134.97C181.78 134.97 182.94 133.88 182.94 132.38 182.94 131.22 182.29 130.63 180.82 130.2 179.87 129.92 179.53 129.7 179.53 129.18 179.53 128.7 179.96 128.48 180.49 128.48 181.02 128.48 181.53 128.7 181.98 129.15L182.68 128.07C182.22 127.56 181.39 127.17 180.4 127.17 178.88 127.17 177.86 128.13 177.86 129.39 177.86 130.48 178.46 131.19 179.89 131.55 180.99 131.81 181.28 132.03 181.28 132.59 181.28 133.23 180.77 133.6 180.06 133.6 179.22 133.6 178.59 133.09 178.17 132.48L177.13 133.49C177.53 134.14 178.56 134.99 180.07 134.99M170.59 130.18C170.82 129.08 171.54 128.51 172.67 128.51 173.65 128.51 174.42 129.21 174.55 130.18L170.6 130.18ZM176.13 133.09 174.86 132.28C174.3 133.1 173.65 133.55 172.72 133.55 171.54 133.55 170.72 132.76 170.55 131.5L176.33 131.5C176.33 128.8 174.92 127.14 172.66 127.14 170.4 127.14 168.83 128.77 168.83 131.09 168.83 133.41 170.3 134.95 172.71 134.95 174.28 134.95 175.5 134.24 176.14 133.07M164.97 124.99 164.97 127.31 164.07 127.31 164.07 128.75 164.97 128.75 164.97 134.81 166.69 134.81 166.69 128.75 168.12 128.75 168.12 127.31 166.69 127.31 166.69 124.99 164.97 124.99ZM158.49 133.51C157.16 133.51 156.23 132.57 156.23 131.05 156.23 129.53 157.19 128.62 158.55 128.62 159.91 128.62 160.89 129.55 160.89 131.04 160.89 132.53 159.91 133.52 158.49 133.52M158.08 134.97C159.2 134.97 160.2 134.57 160.75 133.85L160.77 133.85 160.77 134.81 162.49 134.81 162.49 127.31 160.77 127.31 160.77 128.33 160.75 128.33C160.25 127.59 159.22 127.15 158.13 127.15 156.04 127.15 154.47 128.79 154.47 131.07 154.47 133.35 155.93 134.96 158.08 134.96M150.53 124.99 150.53 127.31 149.63 127.31 149.63 128.75 150.53 128.75 150.53 134.81 152.25 134.81 152.25 128.75 153.68 128.75 153.68 127.31 152.25 127.31 152.25 124.99 150.53 124.99ZM146.93 125.64 148.08 124.52C147.24 123.36 145.94 122.92 144.78 122.92 142.47 122.92 141.2 124.49 141.2 126.22 141.2 128.06 142.44 128.86 144.22 129.41 145.63 129.88 146.56 130.28 146.56 131.42 146.56 132.56 145.63 133.33 144.58 133.33 143.53 133.33 142.84 132.83 142.15 131.9L140.83 133.06C141.64 134.33 143.03 135 144.6 135 146.63 135 148.48 133.64 148.48 131.19 148.48 129.31 146.94 128.51 145.47 128.03 143.76 127.44 143.11 127.07 143.11 126.09 143.11 125.25 143.7 124.48 144.85 124.48 145.64 124.48 146.32 124.85 146.94 125.63M131.74 133.51C130.34 133.51 129.45 132.52 129.45 131.06 129.45 129.6 130.43 128.61 131.77 128.61 133.11 128.61 134.13 129.63 134.13 131.03 134.13 132.55 133.18 133.51 131.74 133.51M131.37 134.97C132.44 134.97 133.45 134.58 134.02 133.87L134.04 133.87 134.04 134.81 135.76 134.81 135.76 121.95 134.04 121.95 134.04 128.35 134.02 128.35C133.45 127.58 132.47 127.16 131.34 127.16 129.26 127.16 127.7 128.8 127.7 131.07 127.7 133.34 129.14 134.98 131.37 134.98M120.88 130.18C121.11 129.08 121.83 128.51 122.96 128.51 123.94 128.51 124.71 129.21 124.84 130.18L120.89 130.18ZM126.42 133.09 125.15 132.28C124.59 133.1 123.94 133.55 123.01 133.55 121.83 133.55 121.01 132.76 120.84 131.5L126.62 131.5C126.62 128.8 125.21 127.14 122.95 127.14 120.69 127.14 119.12 128.77 119.12 131.09 119.12 133.41 120.59 134.95 123 134.95 124.57 134.95 125.79 134.24 126.43 133.07M115.26 124.99 115.26 127.31 114.36 127.31 114.36 128.75 115.26 128.75 115.26 134.81 116.98 134.81 116.98 128.75 118.41 128.75 118.41 127.31 116.98 127.31 116.98 124.99 115.26 124.99ZM111.1 134.83 112.81 134.83 112.81 127.31 111.1 127.31 111.1 134.83ZM111.96 125.65C112.58 125.65 113 125.25 113 124.61 113 123.97 112.57 123.59 111.96 123.59 111.35 123.59 110.92 124.01 110.92 124.61 110.92 125.24 111.32 125.65 111.96 125.65M102.4 134.81 104.12 134.81 104.12 130.39C104.12 129.29 104.85 128.59 105.84 128.59 106.83 128.59 107.38 129.15 107.38 130.2L107.38 134.8 109.1 134.8 109.1 129.7C109.1 128.1 108.05 127.14 106.47 127.14 105.52 127.14 104.7 127.53 104.16 128.29L104.13 128.29 104.13 127.3 102.41 127.3 102.41 134.8ZM91.32 123.13 91.32 130.74C91.32 133.05 92.78 135.02 95.71 135.02 98.64 135.02 100.24 132.94 100.24 130.8L100.24 123.13 98.46 123.13 98.46 130.24C98.46 131.82 97.96 133.37 95.76 133.37 93.56 133.37 93.11 131.73 93.11 130.24L93.11 123.13 91.33 123.13ZM78.99 134.81 80.71 134.81 80.71 130.39C80.71 129.29 81.44 128.59 82.43 128.59 83.42 128.59 83.96 129.15 83.96 130.2L83.96 134.8 85.68 134.8 85.68 129.7C85.68 128.1 84.63 127.14 83.04 127.14 82.1 127.14 81.27 127.53 80.73 128.29L80.7 128.29 80.7 127.3 78.98 127.3 78.98 134.8ZM73.24 134.81 74.96 134.81 74.96 130.41C74.96 129.46 75.67 128.72 76.59 128.72 76.96 128.72 77.29 128.81 77.53 128.98L77.58 128.96 77.83 127.33C77.58 127.21 77.29 127.14 77.04 127.14 76.27 127.14 75.44 127.64 74.96 128.41L74.93 128.41 74.93 127.29 73.24 127.29 73.24 134.79ZM66.01 130.18C66.24 129.08 66.96 128.51 68.09 128.51 69.07 128.51 69.84 129.21 69.97 130.18L66.02 130.18ZM71.54 133.09 70.27 132.28C69.71 133.1 69.06 133.55 68.13 133.55 66.95 133.55 66.13 132.76 65.96 131.5L71.74 131.5C71.74 128.8 70.33 127.14 68.07 127.14 65.81 127.14 64.24 128.77 64.24 131.09 64.24 133.41 65.71 134.95 68.12 134.95 69.69 134.95 70.91 134.24 71.55 133.07M60.38 124.99 60.38 127.31 59.48 127.31 59.48 128.75 60.38 128.75 60.38 134.81 62.1 134.81 62.1 128.75 63.53 128.75 63.53 127.31 62.1 127.31 62.1 124.99 60.38 124.99ZM55.61 134.97C57.31 134.97 58.48 133.88 58.48 132.38 58.48 131.22 57.83 130.63 56.36 130.2 55.41 129.92 55.07 129.7 55.07 129.18 55.07 128.7 55.5 128.48 56.03 128.48 56.56 128.48 57.07 128.7 57.52 129.15L58.22 128.07C57.76 127.56 56.93 127.17 55.94 127.17 54.42 127.17 53.4 128.13 53.4 129.39 53.4 130.48 54.01 131.19 55.43 131.55 56.53 131.81 56.83 132.03 56.83 132.59 56.83 133.23 56.32 133.6 55.61 133.6 54.77 133.6 54.14 133.09 53.72 132.48L52.68 133.49C53.08 134.14 54.11 134.99 55.62 134.99M46.13 130.18C46.36 129.08 47.08 128.51 48.21 128.51 49.19 128.51 49.96 129.21 50.09 130.18L46.14 130.18ZM51.66 133.09 50.39 132.28C49.83 133.1 49.18 133.55 48.25 133.55 47.07 133.55 46.25 132.76 46.08 131.5L51.86 131.5C51.86 128.8 50.45 127.14 48.19 127.14 45.93 127.14 44.36 128.77 44.36 131.09 44.36 133.41 45.83 134.95 48.24 134.95 49.81 134.95 51.03 134.24 51.67 133.07M33.24 135.22 33.33 135.22 36.52 127.04 36.55 127.04 39.77 135.22 39.86 135.22 44.71 123.13 42.82 123.13 39.84 130.94 39.79 130.94 36.63 122.72 36.54 122.72 33.33 130.94 33.27 130.94 30.15 123.13 28.24 123.13 33.22 135.22Z" fill="#526580"/><path d="M189.03 97.66 193.02 86.71 193.11 86.71 196.92 97.66 189.02 97.66ZM174.74 111.15 184.09 111.15 186.44 104.66 199.37 104.66 201.63 111.15 211.17 111.15 198.1 75.71 188.61 75.71 174.74 111.15ZM160.27 111.15 169.43 111.15 169.43 83.56 176.86 83.56 176.86 75.71 152.84 75.71 152.84 83.56 160.27 83.56 160.27 111.15ZM132.78 97.66 136.78 86.71 136.87 86.71 140.68 97.66 132.78 97.66ZM118.49 111.15 127.84 111.15 130.19 104.66 143.11 104.66 145.37 111.15 154.91 111.15 141.84 75.71 132.35 75.71 118.49 111.15ZM112.01 85.68 115.68 78.44C112.91 76.42 108.82 75.1 105.34 75.1 97.73 75.1 92.79 79.71 92.79 86.61 92.79 91.97 95.85 94.83 102.24 96.43 106.33 97.46 107.74 98.26 107.74 100.19 107.74 102.12 106.52 103.2 104.07 103.2 101.62 103.2 98.85 102.17 96.27 100.19L91.99 107.95C95.37 110.25 100.36 111.76 104.4 111.76 112.3 111.76 117.51 106.64 117.51 98.98 117.51 93.72 114.31 90.94 108.39 89.3 103.31 87.89 102.56 87.42 102.56 85.68 102.56 84.08 103.78 83 105.94 83 107.96 83 110.26 84.03 112 85.68M58.55 75.71 58.55 97.47C58.55 106.21 64.33 111.76 73.12 111.76 82.43 111.76 88.35 105.88 88.35 98.04L88.35 75.71 79.18 75.71 79.18 94.46C79.18 99.87 78.66 103.44 73.3 103.44 67.94 103.44 67.71 99.02 67.71 94.79L67.71 75.71 58.55 75.71ZM11.07 111.15 20.37 111.15 26.94 90.52 27.13 90.52 33.79 111.15 43.09 111.15 54.31 75.71 44.67 75.71 38.34 97.66 38.15 97.66 30.82 75.71 23.68 75.71 16.35 97.66 16.16 97.66 9.64 75.71 0 75.71 11.07 111.15Z" fill="#526580"/></g><path d="M77.59 64.34 101.21 34.27 124.84 64.34 77.59 64.34Z" fill="#97B0C2"/><path d="M114.71 0 94.46 25.7 101.21 34.27 117.13 14.04 156.73 64.37 165.51 64.37 114.71 0Z" fill="#F2684B"/><path d="M46.13 64.37 85.68 14.42 94.46 25.7 63.99 64.37 46.13 64.37Z" fill="#526580"/></svg>